<svg width="500" height="500" viewBox="0 0 500 500" fill="none" xmlns="http://www.w3.org/2000/svg"><path d="M250 485.073c117.724 0 213.159-4.038 213.159-9.019s-95.435-9.019-213.159-9.019c-117.725 0-213.16 4.038-213.16 9.019s95.435 9.019 213.16 9.019Z" fill="#E2E8F0"/><path d="M231.634 179.479s.853 18.73-.273 27.225c-1.027 7.749.699 43.519-1.006 44.011-3.833 1.106-13.707-2.139-13.707-2.139s1.353-62.887 1.988-63.111c.635-.224 12.998-5.986 12.998-5.986Z" fill="#DE8F63"/><path d="M217.622 209.144s5.257-1.122 7.516-1.043c2.259.08 4.291 1.359 3.834 1.838-.457.479-4.66-1.511-11.351.843l.001-1.638Z" fill="#D4895F"/><path d="m185.948 285.934-12.271 163.001-13.867.478-3.807-163.479h29.945Z" fill="#E69566"/><path d="m156.003 285.934 1.321 55.349 24.518 5.176 4.106-60.525h-29.945Z" fill="#DE8F63"/><path d="m174.109 443.696-.167 27.586-43.676.395s1.623-8.974 8.941-10.147c7.318-1.173 14.794-1.247 14.794-1.247s6.973-11.137 8.465-18.466l11.643 1.879Z" fill="#653C38"/><path d="M155.471 458.071c-2.491-.305 2.869-18.857 3.883-20.824 1.014-1.967 5.994-.336 7.288 1.91 1.295 2.245-6.315 19.509-11.171 18.914Z" fill="#734440"/><path d="m130.265 471.677-.087 4.077 29.94.301s1.717-3.181 2.943-3.141c1.226.04 1.477 2.957 1.477 2.957l9.649.104-.244-4.692-43.678.394Z" fill="#4F2919"/><path d="m190.134 285.934 12.272 163.001 13.867.478 3.806-163.479h-29.945Z" fill="#E69566"/><path d="m220.079 285.934-1.321 55.349-24.518 5.176-4.106-60.525h29.945Z" fill="#DE8F63"/><path d="m201.974 443.696.167 27.586 43.676.395s-1.623-8.974-8.941-10.147c-7.318-1.173-14.794-1.247-14.794-1.247s-6.973-11.137-8.464-18.466l-11.644 1.879Z" fill="#653C38"/><path d="M220.611 458.071c2.491-.305-2.869-18.857-3.883-20.824-1.014-1.967-5.994-.336-7.288 1.91-1.294 2.245 6.315 19.509 11.171 18.914Z" fill="#734440"/><path d="m245.817 471.677.087 4.077-29.94.301s-1.717-3.181-2.942-3.141c-1.226.04-1.477 2.957-1.477 2.957l-9.649.104.244-4.692 43.677.394Z" fill="#4F2919"/><path d="M181.377 132.469s-26.345-.637-37.348 42.071l16.814 10.022-.32 53.053h60.588v-52.728l12.519-5.41s-4.657-43.084-30.565-47.354l-21.688.346Z" fill="#FBE6DB"/><path d="M179.576 140.692s7.027 10.886 12.118 10.612c5.09-.274 14.918-12.104 14.918-12.104s-7.539 14.832-14.918 14.556c-7.379-.275-12.062-8.694-12.118-13.064Z" fill="#E3D1C7"/><path d="m145.148 172.511 14.351 4.34s-11.314 24.695-15.471 23.576c-4.155-1.118 1.12-27.916 1.12-27.916Z" fill="#DE8F63"/><path d="M160.842 184.563s12.087-36.255 11.798-37.754c-.288-1.499-6.523 10.688-8.281 13.627-1.758 2.939-2.922 14.946-7.536 21.731l4.019 2.396Z" fill="#E3D1C7"/><path d="M228.953 282.988c.506 4.113-9.51 47.328-9.51 47.328h-65.131s-4.128-42.8-4.128-51.376 10.904-41.325 10.904-41.325l-1.517-28.176s14.725-4.992 14.699-36.929l36.662.357s1.066 33.836 12.576 36.495l-2.398 28.254s5.765 28.479 7.843 45.372Z" fill="#475569"/><path d="M221.296 208.368s-1.27 3.398-2.66 6.796c-1.39 3.398.241 22.356 1.237 22.452.997.097-.437-19.512-.04-21.175.397-1.664 3.313-7.711 1.463-8.073Zm-59.496 0s1.27 3.398 2.66 6.796c1.39 3.398-.241 22.356-1.237 22.452-.997.097.437-19.512.04-21.175-.397-1.664-3.312-7.711-1.463-8.073Zm-2.579 33.793c-.53.93 17.171 2.605 28.952 2.606 22.782.003 30.238-1.917 30.462-2.606.224-.689-58.873-.947-59.414 0Zm10.444-20.882c.208.958 11.672-5.227 18.676-10.221 13.544-9.658 16.896-14.334 16.642-14.972-.254-.638-35.53 24.217-35.318 25.193Zm17.219 7.492c.398.745 7.391-4.33 11.355-8.382 7.667-7.836 8.986-11.565 8.635-12.059-.352-.495-20.395 19.681-19.99 20.441Z" fill="#54638A"/><path d="M149.911 153.083s-15.127 40.346-15.926 45.302c-.799 4.956 6.554 19.024 10.231 17.905 3.677-1.119 8.952-9.592 8.473-13.109-.48-3.517 1.549-34.711 1.439-44.918l-4.217-5.18Z" fill="#E69566"/><path d="M192.145 79.857c-2.699-6.165.429-12.842 3.953-15.134 2.389-1.554 5.436-1.954 8.109-1.064 2.673.891 4.924 3.057 5.988 5.764 1.106 2.817 1.066 6.282 3.153 8.406-1.301.92-3.161.49-4.432-.464l-6.071-4.55c-.758-.569-1.535-1.146-2.429-1.43-1.798-.57-7.066 4.694-8.271 8.472Z" fill="#79393A"/><path d="M186.544 78.899s1.703-2.968 5.513-3.36c3.81-.39 5.435 3.72 5.435 3.72s-3.839 4.67-10.948-.36Z" fill="#96D7C1"/><path d="M220.433 128.301c3.19-11.729-5.829-22.263-7.539-25.358-2.088-3.779-2.475-8.264-3.134-12.56-.658-4.298-1.626-8.993-4.857-11.782-2.731-2.357-9.305-2.62-12.24.078-4.561-1.069-15.886-4.273-19.949-1.873-8.556 5.055 1.684 25.007-5.27 32.072-3.713 3.772-5.756 12.48-5.018 20.437l58.007-1.014Z" fill="#79393A"/><path d="M191.987 144.772c5.346-.697 12.067-11.886 11.078-12.647-4.151-3.197-4.464-21.491-4.464-21.491l-12.101.834s-1.532 15.337-5.123 21.002c-1.232 1.944 5.728 12.939 10.61 12.302Z" fill="#FAA270"/><path d="M185.011 121.278s2.355 6.438 7.007 5.32c4.545-1.092 6.845-4.4 7.145-7.415l-.562-8.55-12.101.834-1.489 9.811Z" fill="#DE8F63"/><path d="M176.108 89.646s.965 34.518 16.492 32.701c10.344-1.211 12.275-16.229 12.702-26.11.752-17.402-29.194-6.591-29.194-6.591Z" fill="#FAA270"/><path d="M187.595 114.954h7.506s-.93 3.16-3.962 3.118c-2.236-.031-3.544-3.118-3.544-3.118Z" fill="#fff"/><path d="M201.277 110.191c-.252 1.222-1.695 1.957-3.222 1.642-1.527-.315-2.56-1.562-2.308-2.784.252-1.222 1.695-1.957 3.222-1.642 1.527.315 2.56 1.562 2.308 2.784Zm-20.263 0c.252 1.222 1.695 1.957 3.222 1.642 1.527-.315 2.56-1.562 2.308-2.784-.252-1.222-1.695-1.957-3.222-1.642-1.527.315-2.561 1.562-2.308 2.784Z" fill="#DE8F63"/><path d="M210.079 102.297c.001-3.217-6.598-4.09-6.925.454-.3 4.16 6.923 5.276 6.925-.454Z" fill="#FAA270"/><path d="M205.43 103.759c-.079-.51.081-1.042.384-1.46.303-.418.74-.727 1.215-.931.265-.113.555-.197.839-.152.285.045.56.247.615.53" stroke="#49484F" stroke-miterlimit="10"/><path d="M172.641 101.997c-.001-3.217 6.598-4.09 6.925.454.3 4.16-6.923 5.276-6.925-.454Z" fill="#FAA270"/><path d="M177.541 103.759c.079-.51-.081-1.042-.384-1.46-.303-.418-.741-.727-1.215-.931-.265-.113-.555-.197-.839-.152-.285.045-.56.247-.615.53" stroke="#49484F" stroke-miterlimit="10"/><path d="M195.49 82.013s-.816 20.352-21.213 17.702c0 0-4.455-12.362-.975-15.441 3.481-3.078 16.532-3.767 22.188-2.261Z" fill="#79393A"/><path d="M192.018 86.36s3.706 11.588 5.474 11.04c1.768-.55 1.188-8.526 1.188-8.526s6.753 8.422 9.281 7.396c2.529-1.026-6.943-19.967-15.943-9.91Z" fill="#79393A"/><path d="M182.227 98.002c-.499-.595 4.48-1.229 5.577-1.083 1.097.146 1.12 1.355 1.12 1.355s-6.423.055-6.697-.272Z" fill="#8C4243"/><path d="M187.972 103.079c-.013 1.098-.438 1.984-.949 1.978-.511-.006-.915-.901-.902-1.999.013-1.098.438-1.984.949-1.978.511.005.915.9.902 1.999Z" fill="#49484F"/><path d="M201.807 98.118c.522-.589-4.43-1.282-5.532-1.149-1.102.133-1.173 1.342-1.173 1.342s6.418.13 6.705-.193Z" fill="#8C4243"/><path d="M195.962 103.172c-.013 1.098.391 1.993.902 1.999.511.006.936-.879.949-1.978.013-1.098-.391-1.993-.902-1.999-.512-.006-.936.88-.949 1.978Z" fill="#49484F"/><path d="M192.198 106.498s-2.923 3.094-2.971 3.722c-.048.628 2.971 1.063 2.971 1.063" stroke="#49484F" stroke-miterlimit="10"/><path d="M181.377 132.469s-2.081-.243-5.269.812l2.634 44.503 4.998.186-2.363-45.501Zm21.786-.836s2.081-.243 5.269.812l-3.236 44.22-4.998.186 2.965-45.218Z" fill="#475569"/><path d="M222.23 176.851c-.213-2.883.959-7.881 0-10.364-.959-2.483-5.009-15.208-5.542-14.663-.533.546 4.423 33.064 4.423 33.064l1.908-.825s-.576-4.329-.789-7.212Z" fill="#E3D1C7"/><path d="M185.355 330.316s1.066-48.433 0-49.712c-1.066-1.279-17.838-2.259-17.978-3.776-.14-1.517 15.459-.594 15.459-.594s-9.417-9.272-8.352-9.912c1.066-.639 7.964 7.447 12.828 7.88 4.864.433 13.023-6.085 14.301-5.802 1.279.284-7.46 6.927-7.46 6.927s15.347-.249 14.921 1.67c-.426 1.918-18.983 1.93-19.626 3.635-.643 1.705-.537 49.683-.537 49.683h-3.556v.001Z" fill="#54638A"/><path d="M216.173 294.929c.594 1.485-16.288 3.709-27.381 4.089-11.093.381-28.24-.356-28.522-1.465-.281-1.107 55.297-4.137 55.903-2.624Zm-3.383 12.328c.421 1.506-14.055 3.147-23.505 3.145-9.45-.002-23.983-1.329-24.159-2.447-.177-1.117 47.235-2.232 47.664-.698Z" fill="#475475"/><path d="M296.609 426.055v37.898h18.467l2.304-37.898h-20.771Zm28.269 0v37.898h18.467l2.305-37.898h-20.772Z" fill="#FAA270"/><path d="M297.93 87.302s-5.739-4.56-6.185-9.578c-.446-5.018.216-10.578 3.347-11.67 0 0-6.3-3.885-4.809-5.78 1.491-1.897 6.148-1.609 6.148-1.609s-3.855-4.799-2.545-5.735c1.31-.936 9.86 2.321 9.86 2.321s-1.643-3.5.079-3.85c1.721-.35 15.398 5.42 15.398 5.42s-2.139-3.512-1.482-3.692c.657-.18 3.25 2.667 3.25 2.667s3.993-3.289 4.804-2.599c.811.69-2.567 4.956-2.567 4.956s3.505.65 5.831 2.046c2.326 1.396-1.163 3.636-1.163 3.636s2.858 1.773 3.905 4.212c1.047 2.44-1.158 2.972-1.158 2.972s6.777 8.326-.599 15.881l-32.114.402Z" fill="#49484F"/><path d="M382.85 184.561v.006a5.386 5.386 0 0 1-.141.776v.006c-.33 1.429-2.164 3.616-4.049 5.35l-102.318-5.045-21.548 13.84c-7.305.764-9.895-5.057-9.895-11.116 0-.293.006-.58.018-.873.134-3.323 1.008-6.627 2.284-8.875 2.119-3.732 4.251-7.952 6.358-12.387.092-.189.177-.379.269-.568a470.176 470.176 0 0 0 4.874-10.707c.092-.195.177-.391.257-.58 2.058-4.648 4.049-9.266 5.943-13.578.079-.195.171-.391.25-.586 1.942-4.41 3.762-8.484 5.436-11.904.086-.177.171-.348.257-.519 1.435-2.926 2.755-5.344 3.927-7.054 2.608-3.817 15.459-5.912 30.258-6.645 7.745-.385 16.009.018 23.631-.086 14.304-.202 24.706 2.119 27.62 4.318 1.753 1.313 3.878 5.411 6.096 10.738.079.195.165.391.244.592.983 2.382 1.973 4.99 2.962 7.69.079.208.153.415.232.629 2.309 6.37 4.569 13.211 6.468 18.794.061.189.122.373.189.55 1.264 3.726 2.358 6.853 3.182 8.844.397.953.965 2.071 1.619 3.286.11.202.22.403.33.611 2.437 4.513 5.705 10.236 5.247 14.493Z" fill="#0F172A"/><path d="M275.682 180.854c-1.875.147-3.671-.147-5.375-.953-1.716-.806-3.268-1.783-5.124-2.26-3.42-.88-7.122-.531-10.353.861-3.842 1.661-5.919 4.599-8.282 7.897-.482.672-1.051 1.325-1.649 1.979 0-.293.006-.58.018-.873.275-.318.537-.635.782-.965 2.364-3.176 4.245-6.26 7.885-8.123a16.933 16.933 0 0 1 9.992-1.71c4.312.592 7.629 3.884 12.106 3.536.391-.03.391.58 0 .611Zm107.168 3.707v.006a5.386 5.386 0 0 1-.141.776c-1.105-1.356-2.376-2.577-3.714-3.726-2.608-2.235-5.393-4.734-8.6-6.041-7.348-2.999-15.031.965-20.027 6.358-.269.287-.696-.147-.428-.434 4.984-5.381 12.496-9.302 19.911-6.786 3.475 1.185 6.431 3.823 9.198 6.157 1.364 1.143 2.653 2.359 3.801 3.69Zm-17.035-46.578c-3.066.525-6.047 1.478-8.856 3.072-1.631.922-3.219 1.961-5.027 2.529-1.643.519-3.372.58-5.082.525-4.489-.14-8.972-.702-13.431-1.222-8.74-1.026-17.596-2.18-26.398-1.197-8.27.916-16.149 3.885-24.566 2.626-5.839-.873-11.648-3.09-17.554-3.506.079-.195.171-.391.25-.586 6.364.507 12.594 3.017 18.959 3.695 8.728.934 17.181-2.571 25.83-3.091 8.85-.531 17.658.806 26.422 1.784 4.276.483 8.85 1.252 13.15.831 4.068-.397 7.232-3.335 10.97-4.727a28.335 28.335 0 0 1 5.1-1.362c.08.208.154.416.233.629Zm-3.194-8.318a69.055 69.055 0 0 1-9.595.214c-7.952-.373-15.557-2.889-23.466-3.469-7.586-.556-14.683 1.863-21.848 3.976-7.146 2.113-14.28 3.262-21.725 2.339a48.798 48.798 0 0 1-10.285-2.413c-1.686-.599-3.384-1.374-5.112-1.991.086-.177.171-.348.257-.519 1.338.476 2.657 1.038 3.982 1.539a48.59 48.59 0 0 0 12.808 2.95c7.812.696 15.105-1.032 22.52-3.28 6.969-2.107 13.804-3.879 21.145-3.048 7.879.886 15.44 3.182 23.423 3.365a66.435 66.435 0 0 0 7.653-.257c.078.197.163.392.243.594Zm9.852 27.662c-3.652.953-7.244 2.174-10.951 2.901a38.285 38.285 0 0 1-13.01.305c-4.508-.666-8.85-2.119-13.309-3.036a75.976 75.976 0 0 0-28.841-.293c-4.392.8-8.734 1.906-13.223 2.058-4.813.159-9.663-.446-14.433-1.044a219.929 219.929 0 0 1-13.388-2.089c-2.199-.415-4.404-.849-6.615-1.16.092-.195.177-.391.257-.58 2.278.33 4.544.782 6.81 1.203a210.822 210.822 0 0 0 16.131 2.388c4.697.519 9.449.983 14.17.458 4.599-.513 9.076-1.765 13.663-2.388a76.547 76.547 0 0 1 27.345 1.234c4.599 1.051 9.119 2.523 13.846 2.926 4.96.415 9.809-.257 14.592-1.57 2.266-.617 4.508-1.283 6.767-1.863.06.189.121.373.189.55Z" fill="#F7E6DE"/><path d="M377.603 170.068c-1.044-.202-2.095-.36-3.158-.415-3.121-.165-5.9.806-8.679 2.126-4.392 2.077-8.594 3.732-13.492 4.141-4.904.409-9.846-.141-14.671-1.038-5.289-.99-10.493-2.388-15.789-3.384-5.369-1.002-10.725-1.393-16.18-.959-10.163.8-20.302 3.714-30.563 2.663-4.788-.489-9.088-2.138-13.455-4.062-2.596-1.148-5.289-2.321-8.056-2.895.092-.189.177-.379.269-.568 2.443.531 4.825 1.503 7.134 2.51 5.406 2.364 10.524 4.318 16.491 4.581 10.218.446 20.198-2.492 30.362-2.981 10.64-.513 20.663 2.895 31.022 4.697 5.265.916 10.713 1.368 16.021.513a29.455 29.455 0 0 0 7.549-2.29c2.064-.941 4.068-2.046 6.212-2.804 2.944-1.032 5.79-.916 8.655-.446.108.201.218.403.328.611Z" fill="#F7E6DE"/><path d="M294.873 114.864s6.529 20.275 21.06 19.249c14.338-1.012 20.282-10.456 22.538-19.826 0 0-22.287-2.876-43.598.577Z" fill="#020617"/><path d="M275.658 168.045s-7.42-5.557-9.406-4.772c-1.986.785 5.167 3.542 7.419 7.462l1.987-2.69Z" fill="#020617" stroke="#020617" stroke-width=".5" stroke-miterlimit="10"/><path d="M254.689 171.81c-.861-2.186 17.198-6.424 23.732-1.384l-2.826 3.79s-4.817-4.312-10.597-3.79c-5.938.536-10.119 1.865-10.309 1.384Zm103.851 1.464s7.42-5.557 9.406-4.772c1.986.785-5.167 3.542-7.419 7.462l-1.987-2.69Z" fill="#020617" stroke="#020617" stroke-width=".5" stroke-miterlimit="10"/><path d="M378.328 177.039c.818-2.186-16.342-6.424-22.551-1.384l2.685 3.79s4.577-4.312 10.069-3.79c5.643.536 9.617 1.865 9.797 1.384Z" fill="#020617" stroke="#020617" stroke-width=".5" stroke-miterlimit="10"/><path d="M275.009 176.188s8.181-32.519 8.357-40.293c.177-7.774 4.592 2.293 5.475 8.474.884 6.181-1.083 31.8-13.832 31.819Zm82.109 0s-8.181-32.519-8.357-40.293c-.177-7.774-4.592 2.293-5.475 8.474s1.084 31.8 13.832 31.819Z" fill="#64748B"/><path d="M316.757 127.721c8.114-.754 18.315-12.851 16.814-13.675-6.301-3.457-6.776-23.237-6.776-23.237l-18.367.902s-2.326 16.583-7.775 22.709c-1.87 2.101 8.694 13.989 16.104 13.301Z" fill="#FAA270"/><path d="M304.909 106.331s1.04 5.066 10.132 5.066c7.026 0 12.153-8.084 12.608-11.344l-.853-9.245-18.367.902-3.52 14.621Z" fill="#DE8F63"/><path opacity=".2" d="M310.151 141.065c-.474-2.324-2.786-5.265-4.122-5.8 0 0 .765-.519.795-.796.03-.277-.128-.891-.128-.891l-5.039.724-5.039.724s.021.633.128.891c.107.257.987.54.987.54-1.132.89-2.522 4.362-2.323 6.726.2 2.363 2.552 17.836 2.552 17.836l7.381-1.061 7.381-1.061s-2.099-15.508-2.573-17.832Z" fill="#fff"/><path d="M296.618 135.026s-.418-2.382-.382-2.657c.088-.679 9.594-1.803 9.95-1.43.357.373.511 2.639.511 2.639l-10.079 1.448Z" fill="#3D4870"/><path opacity=".05" d="M298.296 136.399c.019-.251 7.256-1.383 7.304-1.049.048.334-7.335 1.463-7.304 1.049Zm-2.476 10.078c.075-.259 14.819-2.47 14.867-2.136.048.334-14.99 2.563-14.867 2.136Zm.673 4.687c.075-.259 14.819-2.47 14.867-2.136.049.333-14.99 2.562-14.867 2.136Z" fill="#fff"/><path d="m296.444 133.991 10.151-1.459.027.193-10.159 1.46-.019-.194Z" fill="#313959"/><path opacity=".8" d="M349.753 144.566c-.214-2.669-4.355-5.736-4.355-5.736l2.104-9.768s1.535-.413 1.779-1.248-.89-1.131-3.16-1.529c-2.27-.398-4.745-.735-4.8.132-.055.868 1.247 1.779 1.247 1.779l-1.348 9.901s-4.938 1.473-6.048 3.91c-1.11 2.437-3.505 19.971-3.505 19.971l7.944 1.394 6.635 1.165c.002 0 3.721-17.301 3.507-19.971Z" fill="#3A5B52"/><path d="m337.09 149.993 11.633 2.152-1.724 8.808-11.009-1.933 1.1-9.027Z" fill="#F8E7DF"/><path opacity=".2" d="M338.293 144.089c.121-2.369-1.385-5.793-2.546-6.645 0 0 .87-.312.969-.573.098-.261.098-.895.098-.895l-5.061-.555-5.061-.555s-.138.619-.098.895c.04.276.822.769.822.769-1.318.58-3.53 3.596-3.926 5.934-.396 2.338-1.976 17.909-1.976 17.909l7.413.814 7.413.814c-.002-.001 1.832-15.543 1.953-17.912Z" fill="#fff"/><path d="M326.692 134.867s.19-2.411.293-2.669c.255-.636 9.74.646 9.992 1.097.252.45-.164 2.683-.164 2.683l-10.121-1.111Z" fill="#3D4870"/><path opacity=".05" d="M327.975 136.614c.081-.238 7.372.469 7.335.805-.037.336-7.468-.412-7.335-.805Zm-4.911 9.143c.137-.232 14.967 1.303 14.93 1.639-.036.335-15.156-1.256-14.93-1.639Zm-.516 4.706c.137-.232 14.967 1.303 14.93 1.639-.037.335-15.156-1.256-14.93-1.639Z" fill="#fff"/><path d="m326.782 133.82 10.194 1.119-.021.194-10.203-1.12.03-.193Z" fill="#313959"/><path opacity=".2" d="M324.68 149.757c1.27-2.003 1.642-5.725 1.05-7.038 0 0 .911.156 1.125-.022.214-.179.525-.731.525-.731l-4.134-2.972-4.134-2.972s-.424.471-.525.731c-.101.26.337 1.074.337 1.074-1.433-.143-4.842 1.396-6.337 3.237-1.494 1.842-10.525 14.623-10.525 14.623l6.055 4.353 6.055 4.353s9.238-12.633 10.508-14.636Z" fill="#fff"/><path d="M319.112 136.023s1.351-2.006 1.567-2.18c.534-.428 8.164 5.352 8.162 5.868-.001.516-1.461 2.256-1.461 2.256l-8.268-5.944Z" fill="#FFA741"/><path opacity=".05" d="M319.37 138.176c.188-.168 6.188 4.033 5.991 4.307-.197.274-6.301-4.031-5.991-4.307Zm-8.771 5.547c.233-.135 12.393 8.493 12.196 8.767-.197.274-12.581-8.545-12.196-8.767Zm-2.764 3.844c.233-.135 12.393 8.493 12.196 8.767-.197.274-12.581-8.545-12.196-8.767Z" fill="#fff"/><path d="m319.704 135.156 8.327 5.986-.114.158-8.333-5.991.12-.153Z" fill="#313959"/><path opacity=".8" d="M283.826 145.724c.358-2.654 4.658-5.493 4.658-5.493l-1.575-9.868s-1.51-.495-1.709-1.342c-.199-.846.95-1.081 3.237-1.357 2.288-.275 4.778-.478 4.786.391.008.869-1.342 1.709-1.342 1.709l.812 9.96s4.851 1.737 5.828 4.23c.977 2.493 2.423 20.131 2.423 20.131l-8.007.964-6.689.805c.002.001-2.779-17.476-2.422-20.13Z" fill="#3A5B52"/><path d="m296.178 151.826-11.731 1.522 1.246 8.888 11.097-1.336-.612-9.074Z" fill="#F8E7DF"/><path d="M275.552 235.479s-.774 3.772.283 6.686h82.916s1.459-1.496.588-6.311c0 0-71.599-1.498-83.787-.375Z" fill="#020617"/><path d="M359.341 235.855s-81.527.47-83.787-.379c-1.973-.733-4.111-1.631-4.642-4.447a7.534 7.534 0 0 1-.098-.672 9.392 9.392 0 0 1-.031-.727c-.006-2.254 4.227-7.647 4.227-7.647V166.17l84.825 2.297-1.289 35.462-.025.623-.427 11.819-.024.611-.22 6.126s.867.916 1.942 2.07c.153.159.305.324.464.489 1.429 1.539 3.048 3.316 3.463 3.909.789 1.124-4.378 6.279-4.378 6.279Z" fill="#0F172A"/><path d="m358.547 203.929-.025.623c-.495-.122-.989-.25-1.484-.385-3.714-1.014-7.415-2.339-11.293-2.565-3.897-.232-7.665.812-11.391 1.796-7.048 1.857-14.256 2.944-21.542 3.139-7.396.196-14.775-.531-22.006-2.07-3.811-.806-7.604-1.729-11.501-2.034a41.884 41.884 0 0 0-4.294-.116v-.611c1.527-.037 3.06.012 4.587.141 4.043.342 7.983 1.331 11.947 2.156a92.172 92.172 0 0 0 22.984 1.863c7.684-.348 15.001-1.918 22.434-3.781 3.445-.861 6.89-1.399 10.438-.934 3.53.47 6.908 1.661 10.34 2.571.268.073.537.14.806.207Zm-.452 12.442-.024.611c-2.156-.464-4.306-.953-6.444-1.283-3.817-.586-7.519-.501-11.287.379-3.469.812-6.816 2.052-10.267 2.938-3.298.849-6.639 1.301-10.041.922-3.39-.367-6.67-1.356-9.913-2.358-3.549-1.099-7.128-2.254-10.841-2.651-3.86-.415-7.751.006-11.574.605-4.221.666-8.441 1.557-12.692 1.881v-.599c5.576-.434 11.116-1.857 16.68-2.425 3.359-.342 6.719-.33 10.047.287 3.432.641 6.743 1.777 10.084 2.785 3.524 1.063 7.14 2.022 10.848 2.016 3.714 0 7.311-1.008 10.835-2.083 3.237-.983 6.474-2.046 9.84-2.504 3.176-.428 6.34-.159 9.479.391 1.746.306 3.505.703 5.27 1.088Zm2.162 9.296c-2.663.873-5.259 1.961-7.916 2.877a59.648 59.648 0 0 1-11.751 2.755c-7.671 1.002-15.117.183-22.684-1.161-3.958-.702-7.928-1.417-11.953-1.576-3.909-.159-7.678.385-11.44 1.429-3.42.953-6.792 2.15-10.304 2.712-3.207.513-6.364.336-9.498-.482-1.283-.33-2.547-.745-3.799-1.191a7.534 7.534 0 0 1-.098-.672c1.808.647 3.628 1.228 5.503 1.612 7.488 1.527 14.231-1.93 21.402-3.402 7.085-1.442 14.207-.104 21.212 1.136 7.965 1.405 15.813 2.016 23.839.654 3.756-.635 7.427-1.649 11-2.975 2.009-.739 3.995-1.533 6.022-2.205.153.159.306.324.465.489Z" fill="#F7E6DE"/><path d="m277.308 208.108-4.876-56.608h88.655l-4.47 56.608h-79.309Z" fill="#059669" stroke="#047857"/><path d="m271.887 151.401-17.538-19.251 3.463-2.129 19.455 21.38h-5.38Zm89.741 0 13.267-22.507-2.822-.66-13.688 23.167h3.243Z" fill="#C28455"/><path d="m340.716 153.999 16.018-.386m-77.211 1.86 54.9-1.322" stroke="#047857" stroke-miterlimit="10"/><path fill-rule="evenodd" clip-rule="evenodd" d="M309.31 180.025c-.917-.004-1.735-.207-2.451-.614-.717-.408-1.147-.844-1.288-1.312a3.575 3.575 0 0 1-.186-.647 4.178 4.178 0 0 1-.052-.728c.002-.449.061-.857.18-1.226a4.47 4.47 0 0 1 .421-.954 4.54 4.54 0 0 1 .419-.605c.118-.135.203-.22.257-.255l-1.909-1.165 6.28-.115 2.837 5.507-1.802-1.057c-.055.055-.141.139-.258.257-.116.116-.252.259-.406.429-.152.172-.302.341-.445.509-.144.171-.244.31-.298.418-.127.217-.19.413-.191.591-.001.288.101.508.308.662.206.154.372.257.497.311l-1.913-.006Zm18.103 1.043a4.174 4.174 0 0 0 1.686-.386 5.678 5.678 0 0 0 1.31-.831c.361-.313.631-.58.811-.806.18-.223.307-.388.379-.496a7.173 7.173 0 0 1-.462 1.076c-.181.341-.415.753-.704 1.236-.182.325-.307.549-.38.675-.145.306-.3.621-.461.944a67.813 67.813 0 0 1-.977 1.97c-.253.486-.533.953-.84 1.403a5.262 5.262 0 0 1-.946 1.077c-.324.27-.658.404-.999.402l-3.206-.011-.008 2.211-3.269-5.355 3.359-5.226-.034 2.103c3.107.008 4.687.014 4.741.014Zm-12.009-18.505c.61-.008 1.778-.008 3.503-.003 1.743.007 3.022.06 3.839.162.817.102 1.333.34 1.547.718a28.236 28.236 0 0 0 .817 1.459c.204.342.37.621.496.836.125.216.214.377.268.487l1.918-1.099-2.689 5.839-6.491-.615 1.809-1.045-2.251-3.914c-.339-.614-.732-1.112-1.181-1.5-.448-.387-.892-.667-1.331-.841-.44-.17-.807-.281-1.103-.326a4.824 4.824 0 0 0-.66-.07c.395-.052.897-.082 1.509-.088Zm-8.654 17.419c-.682-.318-1.139-.712-1.371-1.182l.335.605c.151.279.357.652.616 1.119.259.467.53.96.816 1.482.285.52.491.906.616 1.157.07.144.116.243.134.299.214.467.414.886.601 1.255.189.368.402.751.643 1.147.241.395.492.721.751.973.26.252.506.378.739.379l7.034.024.023-6.748c-4.149-.013-7.005-.024-8.569-.029-.898-.004-1.687-.164-2.368-.481Zm19.979.023c-.313-.505-.983-1.571-2.01-3.2-1.026-1.629-1.63-2.588-1.809-2.875l5.562-3.269c.055.089.178.324.375.702.196.378.438.838.723 1.377l1.312 2.524c.285.548.491.932.617 1.146.089.163.133.369.132.621 0 .341-.083.727-.246 1.158-.054.108-.176.278-.367.512-.188.232-.46.505-.81.817a5.556 5.556 0 0 1-1.309.845 4.117 4.117 0 0 1-1.673.399c-.018-.002-.184-.254-.497-.757Zm-12.84-7.497-5.433-3.101c.055-.089.307-.493.759-1.213l.69-1.107.989-1.578c.289-.457.524-.839.704-1.146.181-.305.308-.513.379-.621.127-.216.311-.377.555-.484.242-.108.598-.206 1.065-.294.18 0 .422.024.727.07.305.046.678.156 1.117.328.439.172.879.445 1.318.816.439.372.819.855 1.14 1.451l.081.134c.089.145.17.28.241.406l-4.332 6.339Z" fill="#34D399"/><path d="M341.106 160.605a171.797 171.797 0 0 1-41.372 31.166l41.372-31.166Z" fill="#065F46"/><path d="M341.106 160.605a171.797 171.797 0 0 1-41.372 31.166" stroke="#047857" stroke-miterlimit="10"/><path d="M345.932 170.426a53.874 53.874 0 0 1-5.656 17.063l5.656-17.063Z" fill="#065F46"/><path d="M345.932 170.426a53.874 53.874 0 0 1-5.656 17.063" stroke="#047857" stroke-miterlimit="10"/><path d="M253.679 198.768c-1.108-1.54-3.678-15.909 7.699-22.134 2.65-1.45 32.645-13.575 32.645-13.575s.089-3.165 1.166-4.718 5.891-4.743 6.771-4.56c.88.183-.067 2.374-.067 2.374s5.377-2.235 6.114-2.208c.737.026-.058 2.063-.058 2.063s2.382-.725 2.208.221c-.174.945-1.395 2.336-1.395 2.336s1.006.979.384 2.07c-.622 1.091-22.619 19.047-29.302 24.512-10.973 8.975-23.865 16.814-26.165 13.619Zm126.103-10.062c-.227-1.883-5.882-13.821-18.469-10.696-2.931.728-35.399 11.745-35.399 11.745s-2.209-2.268-4.054-2.682c-1.845-.413-7.547.499-8.07 1.231-.524.731 1.657 1.701 1.657 1.701s-5.47 1.997-5.994 2.516c-.525.519 1.44 1.478 1.44 1.478s-2.243 1.08-1.475 1.658c.768.577 2.608.775 2.608.775s-.077 1.401 1.119 1.783c1.196.382 29.541-1.305 38.16-1.809 14.154-.829 28.949-3.792 28.477-7.7Z" fill="#FAA270"/><path d="M278.419 236.337c-1.053-.176-1.06 5.232 0 5.166 1.059-.067.795-5.034 0-5.166Zm7.815 0c-1.053-.176-1.06 5.232 0 5.166 1.059-.067.795-5.034 0-5.166Zm7.815 0c-1.053-.176-1.06 5.232 0 5.166 1.06-.067.795-5.034 0-5.166Zm7.815 0c-1.053-.176-1.06 5.232 0 5.166 1.06-.067.795-5.034 0-5.166Zm7.815 0c-1.053-.176-1.06 5.232 0 5.166 1.06-.067.795-5.034 0-5.166Zm7.815 0c-1.053-.176-1.06 5.232 0 5.166 1.06-.067.795-5.034 0-5.166Zm7.815 0c-1.053-.176-1.06 5.232 0 5.166 1.06-.067.795-5.034 0-5.166Zm7.815 0c-1.053-.176-1.06 5.232 0 5.166 1.06-.067.795-5.034 0-5.166Zm7.815 0c-1.053-.176-1.06 5.232 0 5.166 1.06-.067.795-5.034 0-5.166Zm7.815 0c-1.053-.176-1.06 5.232 0 5.166 1.06-.067.795-5.034 0-5.166Zm7.815 0c-1.053-.176-1.06 5.232 0 5.166 1.06-.067.795-5.034 0-5.166Z" fill="#0F172A"/><path d="M282.017 223.986c-.628 1.162 20.735 2.261 34.685 2.153 13.95-.108 35.408-1.292 35.673-2.153.265-.861-69.719-1.184-70.358 0Z" fill="#020617" stroke="#020617" stroke-width=".5" stroke-miterlimit="10"/><path d="M275.835 242.165s16.047 150.885 17.29 199.504h53.476s12.806-173.71 12.15-199.504h-82.916Z" fill="#64748B"/><path d="m346.601 441.669.977-13.422h-55.016l.563 13.422h53.476Z" fill="#2F2933"/><path d="M324.552 310.673c-.268 1.553 8.851 3.021 14.806 2.877 5.955-.144 15.115-1.726 15.228-2.877.114-1.151-29.761-1.582-30.034 0Zm2.232 12.489c-.174 1.565 7.636 2.552 12.698 2.095 5.062-.457 12.802-2.52 12.858-3.676.056-1.155-25.379-.014-25.556 1.581Zm-44.978-13.199c-.309 1.539 8.765 3.44 14.72 3.58 5.955.139 15.152-1.007 15.295-2.151.145-1.145-29.7-2.997-30.015-1.429Zm1.898 12.588c-.216 1.556 7.563 2.914 12.634 2.698 5.071-.216 12.861-1.909 12.948-3.062.088-1.153-25.362-1.222-25.582.364Z" fill="#475569"/><path d="M302.563 260.529c1.519-1.647 14.73 15.9 17.969 20.959 1.38 2.155-1.881 160.181-1.881 160.181h-2.54s2.247-152.43 1.337-154.893c-.91-2.464-13.867-3.637-13.366-5.142.471-1.411 13.383 1.505 13.383 1.505s-16.539-20.836-14.902-22.61Z" fill="#475569"/><path d="M277.349 245.087c-.711.581 23.487 1.13 39.288 1.076 15.801-.054 40.108-.646 40.408-1.076.3-.431-78.972-.592-79.696 0Z" fill="#473D4A"/><path d="M345.082 249.527c2.566-.592 1.921 20.432 14.38 20.688v3.642s-8.509-1.509-11.5-7.776c-3.437-7.199-4.51-16.177-2.88-16.554Z" fill="#475569"/><path d="M299.861 80.734s-1.15-3.159-4.271-2.382c-3.121.776-2.476 13.791 5.235 12.477l-.964-10.095Z" fill="#E0966C"/><path d="M327.095 79.766c0 .56-.014 1.109-.035 1.62-.055 1.546-.651 24.13-15.377 23.832-6.098-.125-9.771-4.865-11.947-10.291-.797-1.975-1.4-4.04-1.843-6.008a51.802 51.802 0 0 1-1.116-7.56c-.159-2.314-.083-3.832-.083-3.832 1.033-8.336 10.852-15.023 18.467-13.312 10.68 2.398 11.969 10.416 11.934 15.55Z" fill="#FAA270"/><path d="M326.339 81.053s1.169-3.152 4.285-2.357c3.117.795 2.394 13.806-5.31 12.445l1.025-10.088Z" fill="#FAA270"/><path d="M298.189 79.942c-.523-.887 4.76-1.76 5.922-1.53 1.161.23 1.174 2.02 1.174 2.02s-6.808-.002-7.096-.49Zm6.044 4.99c-.024 1.164-.482 2.1-1.024 2.088-.542-.01-.961-.964-.938-2.128.024-1.164.482-2.099 1.024-2.088.542.011.962.964.938 2.128Zm14.712-4.566c.559-.865-4.684-1.954-5.854-1.772-1.17.183-1.256 1.97-1.256 1.97s6.802.278 7.11-.198Zm-6.243 4.739c-.024 1.164.396 2.117.937 2.128.542.011 1-.924 1.024-2.088.024-1.164-.396-2.117-.938-2.128-.541-.01-.999.924-1.023 2.088Z" fill="#49484F"/><path d="M295.941 78.067s3.686 1.712 8.523-4.458c0 0 .483 2.708 2.578 2.278 2.095-.43 9.662-5.346 9.662-5.346s-2.001 3.185-.619 3.214c1.382.028 7.806-3.067 7.806-3.067s-.471 13.98 2.176 13.031c2.647-.949 3.655-9.685 2.431-12.937-1.224-3.25-8.762-13.269-19.434-9.8-10.671 3.47-15.513 9.87-13.123 17.085Z" fill="#49484F"/><path d="M327.242 87.418c.087-1.572.755-3.142 1.965-4.148.276-.229.589-.433.942-.494.354-.06.755.048.961.341m-22.762.048a20.3 20.3 0 0 1-1.708 9.838c-.053.12-.109.25-.071.375.058.188.296.28.507.34 1.202.345 2.467.518 3.729.51" stroke="#49484F" stroke-miterlimit="10"/><path d="M308.462 98.625c1.116.282 2.286.397 3.422.21 1.135-.186 2.236-.69 3.035-1.517m-3.763 3.701c.432.076.877.071 1.307-.014" stroke="#4F2F3A" stroke-miterlimit="10"/><path d="M303.25 91.816c0 1.621-1.538 2.952-3.513 3.111-.797-1.975-1.4-4.04-1.843-6.008.45-.146.942-.222 1.455-.222 2.155.001 3.901 1.401 3.901 3.12Zm18.711.004c0 1.723-1.747 3.121-3.901 3.121s-3.901-1.398-3.901-3.122 1.746-3.122 3.901-3.122c2.154 0 3.901 1.398 3.901 3.122Z" fill="#DE8F63"/><path d="M320.018 444.378s-4.052-.263-6.247.031c-3.202.429-7.248 7.559-13.664 7.457 0 0 2.861-9.058-1.272-12.654 0 0-6.319-.384-5.273 6.363 1.046 6.747 2.262 11.984-.153 13.691-2.414 1.706-29.011-5.659-30.09 10.629l57.986.043s-1.42-2.683-2.266-11.136c-.273-2.725.979-14.424.979-14.424Z" fill="#4F2F2C"/><path d="M292.312 451.582c2.27.033 4.536.279 6.76.732m-7.045 2.711c2.097.055 4.186.421 6.177 1.084m-6.578 1.616a191.52 191.52 0 0 1 4.982 1.558" stroke="#593532" stroke-width=".725" stroke-miterlimit="10"/><path d="M320.709 469.937s.092 2.981-.626 5.997l-16.56.066s-.754-2.849-1.49-2.685c-.735.163-1.162 2.702-1.162 2.702l-3.388.021s-.608-3.008-1.344-3.003c-.736.005-1.454 3.021-1.454 3.021l-22.655-.224s-.117-2.821-1.26-2.988c-.844-.123-.82 3.001-.82 3.001l-5.726.035s-.862.223-1.5-5.984l57.985.041Z" fill="#2E1B1A"/><path d="M347.691 444.378s-4.052-.263-6.246.031c-3.202.429-7.248 7.559-13.664 7.457 0 0 2.861-9.058-1.272-12.654 0 0-6.318-.384-5.273 6.363 1.046 6.747 2.262 11.984-.152 13.691-2.414 1.706-29.011-5.659-30.09 10.629l57.986.043s-1.42-2.683-2.266-11.136c-.274-2.725.977-14.424.977-14.424Z" fill="#653C38"/><path d="M320.581 451.582c2.27.033 4.536.279 6.76.732m-7.045 2.711c2.097.055 4.186.421 6.177 1.084m-6.577 1.616a191.52 191.52 0 0 1 4.982 1.558" stroke="#593532" stroke-width=".725" stroke-miterlimit="10"/><path d="M348.979 469.937s.092 2.981-.626 5.997l-16.561.066s-.754-2.849-1.49-2.685c-.735.163-1.162 2.702-1.162 2.702l-3.388.021s-.608-3.008-1.344-3.003c-.736.005-1.454 3.021-1.454 3.021l-22.655-.224s-.117-2.821-1.26-2.988c-.844-.123-.82 3.001-.82 3.001l-5.726.035s-.862.223-1.5-5.984l57.986.041Z" fill="#4F2919"/><path d="M307.823 276.27H171.772v8.168h136.051v-8.168Z" fill="#047857"/><path d="M178.407 284.438h122.781l-9.215 177.123c-.423 8.123-7.133 14.493-15.267 14.493h-73.817c-8.134 0-14.844-6.37-15.267-14.493l-9.215-177.123Z" fill="#059669"/><path fill-rule="evenodd" clip-rule="evenodd" d="M226.422 357.319c-1.43.078-2.723-.163-3.878-.732-1.155-.57-1.865-1.209-2.129-1.927a5.738 5.738 0 0 1-.35-.991 6.421 6.421 0 0 1-.148-1.13c-.038-.7.016-1.342.167-1.928.15-.582.339-1.094.568-1.526.227-.435.429-.762.598-.982.172-.221.296-.362.377-.421l-3.084-1.641 9.78-.758 4.93 8.324-2.906-1.482-.378.424c-.171.191-.37.427-.594.706-.222.282-.439.56-.647.835-.209.28-.352.506-.426.679-.178.349-.258.661-.243.939.025.449.204.783.541 1.004.334.221.603.367.804.439l-2.982.168Zm28.318-.04a6.53 6.53 0 0 0 2.593-.757c.776-.423 1.431-.895 1.965-1.416.534-.521.93-.963 1.191-1.331.261-.364.443-.634.544-.808-.163.598-.37 1.174-.621 1.72a45.456 45.456 0 0 1-.983 1.992c-.253.523-.429.884-.53 1.086a70.8 70.8 0 0 1-.632 1.514 103.506 103.506 0 0 1-1.342 3.16c-.35.781-.743 1.535-1.181 2.264-.438.727-.895 1.316-1.376 1.766-.48.451-.989.69-1.52.719l-4.999.278.191 3.447-5.589-8.048 4.754-8.456.141 3.282c4.845-.271 7.31-.408 7.394-.412Zm-20.425-27.742c.951-.068 2.771-.177 5.461-.327 2.718-.15 4.717-.186 6-.101 1.283.084 2.109.408 2.478.977a43.552 43.552 0 0 0 1.408 2.2c.35.514.634.934.85 1.257.216.325.369.568.462.734l2.888-1.89-3.654 9.35-10.175-.361 2.723-1.795-3.869-5.895c-.585-.925-1.244-1.667-1.979-2.229-.735-.563-1.452-.958-2.153-1.188-.702-.225-1.284-.363-1.749-.407a7.813 7.813 0 0 0-1.035-.049c.611-.118 1.391-.211 2.344-.276Zm-11.888 27.951c-1.092-.432-1.842-1.005-2.245-1.716.123.191.315.494.578.913.262.422.617.984 1.064 1.687.446.704.915 1.449 1.409 2.235.493.784.849 1.366 1.067 1.747.122.218.202.368.237.453a57.71 57.71 0 0 0 1.052 1.9 27.1 27.1 0 0 0 1.109 1.729c.413.594.833 1.08 1.26 1.447.428.369.823.543 1.188.523l10.967-.61-.586-10.522-13.361.744c-1.402.078-2.647-.098-3.739-.53Zm31.149-1.804c-.534-.759-1.678-2.359-3.428-4.804a1475.27 1475.27 0 0 1-3.085-4.316l8.369-5.608c.093.134.308.489.65 1.06.341.571.76 1.265 1.254 2.08l2.277 3.814c.495.828.852 1.407 1.067 1.729.153.246.241.563.263.955.031.532-.063 1.141-.277 1.827-.074.174-.25.449-.525.832-.272.379-.67.83-1.188 1.349-.519.522-1.173 1.001-1.962 1.438a6.415 6.415 0 0 1-2.571.776c-.028.002-.309-.377-.844-1.132Zm-20.708-10.505-8.755-4.333c.078-.144.434-.797 1.071-1.961l.974-1.79c.524-.958.988-1.808 1.397-2.551.409-.739.739-1.357.993-1.851.254-.492.432-.828.534-1.003.178-.348.45-.616.821-.806.368-.191.913-.376 1.633-.556.281-.017.66-.001 1.14.042.479.044 1.072.182 1.772.409.701.228 1.412.613 2.129 1.15.719.54 1.355 1.257 1.91 2.156l.138.202c.152.218.29.42.413.61l-6.17 10.282Z" fill="#34D399"/><path d="M178.407 276.306h122.781l-7.477-30.246a9.32 9.32 0 0 0-9.048-7.083H194.93a9.32 9.32 0 0 0-9.048 7.083l-7.475 30.246Z" fill="#059669"/><path d="M286.646 261.477c.053.504-.027.995-.226 1.433a2.772 2.772 0 0 1-2.548 1.659h-88.151a2.764 2.764 0 0 1-2.548-1.672 2.686 2.686 0 0 1-.226-1.42l.677-6.33a4.948 4.948 0 0 1 4.923-4.432h82.497a4.948 4.948 0 0 1 4.923 4.432l.679 6.33Z" fill="#065F46"/><path d="M286.42 262.91a2.772 2.772 0 0 1-2.548 1.659h-88.151a2.764 2.764 0 0 1-2.548-1.672l.451-4.246a4.948 4.948 0 0 1 4.923-4.432h82.497a4.948 4.948 0 0 1 4.923 4.432l.453 4.259Z" fill="#172621"/><path d="M241.805 284.438h-4.016v10.993h4.016v-10.993Zm-58.014 10.993h-4.971l-1.328-10.993h6.299v10.993Zm116.992 0h-4.972v-10.993h6.299l-1.327 10.993Z" fill="#047857"/><path d="M227.822 240.31s.017 5.348 1.555 6.129c1.539.781 1.895-6.672 1.895-6.672s.298 3.692 1.081 4.018c1.776.741 1.669-4.491 1.451-6.938-.184-2.073-2.03-2.371-2.481-.697 0 0-1.488-3.084-3.6.073 0 0-1.52-2.954-3.747-.146 0 0-1.333-2.517-3.196.609 0 0-5.109-.532-4.893 2.292l4.209.107c-.106 1.611.11 5.248.395 6.84.353 1.965 2.996 1.876 3.411-5.598 0 0-.125 6.214 1.38 7.702 1.507 1.487 2.275-3.707 2.54-7.719Zm-72.793-93.114c1.001-1.15 3.603-1.843 6.592-1.899l.503 1.82-7.095.079Z" fill="#E69566"/><path d="M156.314 139.482c.925 1.529 2.814 5.884 3.184 7.632 2.988 14.08-2.349 28.737-10.17 40.82-7.821 12.083-18.074 22.395-26.525 34.045-2.743 3.781-5.378 7.938-5.685 12.6-.158 2.394 1.2 18.732 4.717 22.742 16.021 18.267 46.3 21.195 52.465 20.856 12.452-.685 23.524-9.406 29.407-20.402 9.684-18.1 5.892-42.173-8.257-57.045-5.141-5.404-11.428-9.659-16.307-15.301-10.67-12.341-17.807-32.56-9.27-49.559-.964-2.03-13.069.985-13.559 3.612Z" fill="#64748B"/><path d="M162.594 154.696a27.084 27.084 0 0 1-1.516 13.651l.07-.229m3.399-12.68c.406 2.24.978 4.451 1.709 6.608" stroke="#475569" stroke-miterlimit="10"/><path d="M165.61 146.858s-7.343-.143-9.305-.203c-1.961-.061-6.393 6.428-6.393 6.428l3.434 5.18 12.552-1.814c2.152-.311-.009-3.439-.009-3.439s2.099-1.522 1.368-2.355a3.485 3.485 0 0 0-1.616-1.049s1.567-2.717-.031-2.748Z" fill="#E69566"/><path fill-rule="evenodd" clip-rule="evenodd" d="M157.642 240.005c-1.118.128-2.142-.001-3.074-.393-.932-.393-1.518-.861-1.759-1.411a4.376 4.376 0 0 1-.32-.761 5.014 5.014 0 0 1-.169-.879 4.984 4.984 0 0 1 .041-1.519c.09-.464.215-.873.374-1.223.158-.352.301-.617.423-.797.124-.181.215-.298.276-.348l-2.494-1.142 7.631-1.05 4.253 6.295-2.347-1.026-.277.35c-.125.158-.27.352-.432.581-.161.231-.318.459-.468.685-.15.23-.252.413-.302.552-.123.282-.171.53-.146.747.04.351.197.604.471.762.272.157.49.259.65.306l-2.331.271Zm22.196-1.353a5.14 5.14 0 0 0 1.997-.714 6.935 6.935 0 0 0 1.474-1.202c.394-.433.684-.798.871-1.099a9.37 9.37 0 0 0 .389-.659c-.1.477-.235.937-.407 1.378-.171.442-.396.977-.678 1.608-.174.422-.295.713-.364.877-.132.394-.275.799-.425 1.216a83.678 83.678 0 0 1-.904 2.54c-.238.628-.51 1.238-.82 1.83-.309.59-.641 1.073-.997 1.448-.356.376-.743.587-1.158.635l-3.906.451.311 2.693-4.757-6.048 3.332-6.851.264 2.566 5.778-.669Zm-17.305-20.793c.742-.098 2.164-.268 4.266-.511 2.123-.244 3.689-.366 4.698-.359 1.01.005 1.673.221 1.988.651a32.924 32.924 0 0 0 1.207 1.659c.298.387.541.702.725.946.184.245.316.428.397.554l2.176-1.617-2.428 7.5-7.993.192 2.051-1.534-3.308-4.44c-.502-.698-1.053-1.248-1.655-1.655-.602-.407-1.183-.684-1.743-.831-.561-.143-1.024-.225-1.39-.237a6.036 6.036 0 0 0-.813.01c.47-.123 1.078-.233 1.822-.328Zm-8.015 22.465c-.877-.288-1.49-.702-1.84-1.241l.496.688c.225.318.53.742.913 1.273.383.531.785 1.093 1.208 1.686.423.591.729 1.032.918 1.32.106.165.176.279.207.344.328.538.633 1.018.913 1.441.283.421.598.856.95 1.304a6.04 6.04 0 0 0 1.055 1.076c.353.269.671.387.955.355l8.568-.99-.95-8.22-10.439 1.207c-1.094.125-2.078.045-2.954-.243Zm24.334-2.868c-.454-.57-1.425-1.771-2.911-3.606s-2.361-2.915-2.62-3.239l6.299-4.787c.08.101.264.369.559.8.294.432.655.956 1.08 1.572l1.963 2.884c.427.626.733 1.063.917 1.306.132.186.215.43.251.737.049.416.004.897-.132 1.445-.05.14-.175.364-.372.677-.195.31-.486.682-.868 1.113-.382.433-.873.839-1.471 1.219-.6.38-1.26.622-1.98.728-.023.002-.261-.282-.715-.849Zm-16.723-7.268-7.065-2.988c.054-.117.303-.645.748-1.587l.68-1.449c.366-.776.69-1.463.976-2.065a56.31 56.31 0 0 0 .692-1.497c.176-.398.3-.669.372-.811a1.43 1.43 0 0 1 .606-.67c.279-.167.698-.337 1.254-.512.219-.026.517-.032.896-.021.378.012.849.092 1.408.238.56.146 1.135.414 1.723.802.589.389 1.121.922 1.598 1.601l.118.152c.129.164.247.316.353.459l-4.359 8.348Z" fill="#E2E8F0"/><path d="M184.077 210.783c-2.297 6.67-7.089 12.145-11.898 17.306a416.483 416.483 0 0 1-30.058 29.174m49.015-35.512a62.777 62.777 0 0 1-5.385 16.54m-20.683 34.196c5.62 1.157 11.812 1.579 16.771-1.309 1.749-1.019 3.255-2.404 4.687-3.835a74.897 74.897 0 0 0 5.263-5.844m5.139-4.75a125.15 125.15 0 0 1 4.918-8.016m-72.072-29.224a30.617 30.617 0 0 0-7.049 9.623c-1.333 2.864-2.207 6.233-.986 9.146m.851 3.751a11.408 11.408 0 0 0 .375 3.697" stroke="#475569" stroke-miterlimit="10"/></svg>
