<svg viewBox="0 0 921.52 767.11" xmlns="http://www.w3.org/2000/svg" fill="none" width="500" height="500"><path d="M123.41 555.57s33.87 105.66 112.04 96.46c78.17-9.2 103.5-91.29 215.43-1.73 111.93 89.55 192.51 120.68 280.9 8.61 50.61-70.2-76.86-69.32 15.98-240.82 92.84-171.51 41.16-231.43-9.08-318.92s-157.56-69.22-250.46 37.56C320.77 252.7 208.75 56.26 154.69 197.1c-28.99 75.52 56.54 67.62 16.77 153.15-39.78 85.53-78.93 132.37-48.04 205.32Z" fill="#f1f5f9"/><path d="M98.96 446.02c10.04-41.92 45.4-96.53-18.03-103.87-23.43-8.17-70.06 19.87-80.93-3.52 40.55-27.75 124.98-26.57 137.88 30.99 2.23 25.47-14.21 46.53-20.97 69.72-13.3 59.05 66.07 50.01 101.49 38.76 14.79 27.23-23.25 21.79-41.88 26.05-21.79 4.99-53.35-4.23-68.96-22.3-8.49-9.83-11.62-23.2-8.6-35.83Zm687.62-93.45c-6.68-26.22-44.43-28.96-67.24-24.11-11.17 2.52-5.52-12.18-12.09-18.83 9.71-5.66 23.16-2.88 34.49-3.54 160.91 15.86-72.78 218.56 151.62 153.76 2.94-.85 5.81-1.92 8.66-3.01 10.16-3.9 13.39 2.77 3.1 10.58-43.65 40.16-157.55 36.62-135.25-47.02 3.59-22.71 25.3-44.81 16.7-67.82Z" fill="#cbd5e1"/><path d="M566.9 536.39c-13.63 16.25-42.98-51.79-55.39-68.56-1.9-2.57-2.89-5.74-2.53-8.92 2.41-20.94 47.45 44.77 58.86 65.03 2.23 3.96 1.97 8.97-.95 12.45ZM425.78 329.43c1.41 1.78 1.8 4.24.81 6.29-7.5 15.52-62.42-44.71-72.95-49.26-12.5-6.41 1.25-25.77 11.44-14.97 19.13 19.79 43.99 36.82 60.7 57.94Zm42.99-35.05c1.53-19.28 3.36-38.53 3.51-57.9.04-5.3 3.15-8.61 8.48-8.48 7.62.18 11.29 4.32 10.37 10.97-3.85 11.46-4.03 70.55-15.64 69.16-5.94-.14-7.41-8.27-6.72-13.75Zm-35.71 252.06c-9.34.23-13.32-4.76-9.99-13.07 7.11-10.46 20.44-67.09 32.61-62.31 11.39 6.52-14.42 54.87-15.38 69.18-1.24 4.09-2.86 6.81-7.23 6.21Zm13.5-237.49c-1.1 4.29-5.54 4.78-8.05.68-.56-.92-.86-1.96-.97-3.03-1.25-12.08-20.07-39.37-5.83-43.85 8.54-3.64 10.92 32.33 14.5 41.78.54 1.41.73 2.96.35 4.42Zm46.09 194.56c-.83 9.47 4.7 21.48-5.95 22.32-4.54-.08-7.05-2.64-5.77-6.53 5.2-15.83-4.17-34.57 4.35-43.25 1.53-1.55 4.09-1.2 5.21.67 3.43 5.74 2.21 17.09 2.29 23.06.02 1.25-.03 2.49-.14 3.73Z" fill="#334155"/><path d="m317.12 378.04 46.42 123.3-46.41 17.47c-9.66 3.64-20.44-1.25-24.08-10.91l-33.25-88.31c-3.64-9.66 1.25-20.44 10.91-24.08l46.41-17.47Z" fill="#cbd5e1"/><path d="m259.7 419.31 33.46 88.89c-11.23 3.08-33.73 18.56-40.44.92l-24.03-63.84c-6.62-17.63 20.58-20.92 31.01-25.97Z" fill="#10b981"/><path d="m338.5 371.54 45.4 120.59c4.66 14.02-15.07 21.51-20.87 7.86l-45.4-120.59c-4.66-14.02 15.07-21.51 20.87-7.86Z" fill="#059669"/><path d="m234.35 460.3 12.72 33.79c-12.91 5.85-27.53 9.93-34.58-6.27-5.39-16.83 8.3-23.41 21.85-27.52Z" fill="#334155"/><path d="m610.97 283.45 39.08 121.53c-110.5 37.56-77.7 29.74-116.73-74.63-3.53-10.98 2.51-22.74 13.49-26.27l64.16-20.63Z" fill="#cbd5e1"/><path d="M668.88 390.71 634.6 284.08c11.44-2.57 34.6-16.86 40.47 1.16l26.02 80.94c5.76 18.01-21.47 19.99-32.21 24.53Z" fill="#10b981"/><path d="m650.23 405.55-39.44-122.66c-4.4-13.86 16.69-20.71 21.23-6.82l39.44 122.66c4.4 13.86-16.69 20.71-21.23 6.83Z" fill="#059669"/><path d="m693.6 342.9-11.05-34.37c13.18-5.21 27.98-8.57 34.23 7.96 4.56 17.07-9.44 22.97-23.18 26.41Z" fill="#334155"/></svg>
