<svg xmlns="http://www.w3.org/2000/svg" viewBox="0 0 24 24" width="24" height="24"><path fill="#FFC107" d="M21.805 10.041H21V10h-9v4h5.652A5.998 5.998 0 0 1 6 12a6 6 0 0 1 6-6c1.53 0 2.921.577 3.981 1.52l2.829-2.829A9.956 9.956 0 0 0 12 2C6.478 2 2 6.478 2 12s4.478 10 10 10 10-4.478 10-10c0-.67-.069-1.325-.195-1.958z"/><path fill="#FF3D00" d="m3.153 7.346 3.285 2.409A5.998 5.998 0 0 1 12 6c1.53 0 2.921.577 3.981 1.52l2.829-2.829A9.956 9.956 0 0 0 12 2a9.993 9.993 0 0 0-8.847 5.346z"/><path fill="#4CAF50" d="M12 22c2.583 0 4.93-.989 6.705-2.596l-3.095-2.619A5.955 5.955 0 0 1 12 18a5.997 5.997 0 0 1-5.641-3.973L3.098 16.54C4.753 19.778 8.114 22 12 22z"/><path fill="#1976D2" d="M21.805 10.041H21V10h-9v4h5.652a6.02 6.02 0 0 1-2.043 2.785l.002-.001 3.095 2.619C18.485 19.602 22 17 22 12c0-.67-.069-1.325-.195-1.958z"/></svg>